<svg width="14" height="14" viewBox="0 0 14 14" fill="none" xmlns="http://www.w3.org/2000/svg">
<path d="M9.87421 5.58579C9.09316 6.36684 9.09316 7.63316 9.87421 8.41421L13.6976 12.2376C13.8912 12.4312 14 12.6938 14 12.9676V12.9676C14 13.5378 13.5378 14 12.9676 14V14C12.6938 14 12.4312 13.8912 12.2376 13.6976L8.41421 9.87421C7.63316 9.09316 6.36684 9.09316 5.58579 9.87421L1.76238 13.6976C1.56877 13.8912 1.30618 14 1.03238 14V14C0.462211 14 0 13.5378 0 12.9676V12.9676C0 12.6938 0.108768 12.4312 0.302376 12.2376L4.12579 8.41421C4.90684 7.63316 4.90684 6.36684 4.12579 5.58579L0.302375 1.76238C0.108767 1.56877 0 1.30618 0 1.03238V1.03238C0 0.462211 0.462211 0 1.03238 0V0C1.30618 0 1.56877 0.108768 1.76238 0.302376L5.58579 4.12579C6.36684 4.90684 7.63316 4.90684 8.41421 4.12579L12.2376 0.302375C12.4312 0.108767 12.6938 0 12.9676 0V0C13.5378 0 14 0.462211 14 1.03238V1.03238C14 1.30618 13.8912 1.56877 13.6976 1.76238L9.87421 5.58579Z" fill="#E8E8E8"/>
</svg>