<svg width="54" height="48" viewBox="0 0 54 48" fill="none" xmlns="http://www.w3.org/2000/svg">
<path d="M16.3333 26.6667C11.3733 26.6667 7.23992 30.08 6.03992 34.6667H0.333252V40H6.03992C7.23992 44.5867 11.3733 48 16.3333 48C21.2933 48 25.4266 44.5867 26.6266 40H53.6666V34.6667H26.6266C25.4266 30.08 21.2933 26.6667 16.3333 26.6667ZM16.3333 42.6667C13.3999 42.6667 10.9999 40.2667 10.9999 37.3333C10.9999 34.4 13.3999 32 16.3333 32C19.2666 32 21.6666 34.4 21.6666 37.3333C21.6666 40.2667 19.2666 42.6667 16.3333 42.6667ZM47.9599 8C46.7599 3.41333 42.6266 0 37.6666 0C32.7066 0 28.5733 3.41333 27.3733 8H0.333252V13.3333H27.3733C28.5733 17.92 32.7066 21.3333 37.6666 21.3333C42.6266 21.3333 46.7599 17.92 47.9599 13.3333H53.6666V8H47.9599ZM37.6666 16C34.7332 16 32.3333 13.6 32.3333 10.6667C32.3333 7.73333 34.7332 5.33333 37.6666 5.33333C40.5999 5.33333 42.9999 7.73333 42.9999 10.6667C42.9999 13.6 40.5999 16 37.6666 16Z" fill="#F9F9F9"/>
</svg>